<mxfile host="app.diagrams.net" modified="2023-11-01T15:08:40.353Z" agent="Mozilla/5.0 (Windows NT 10.0; Win64; x64) AppleWebKit/537.36 (KHTML, like Gecko) Chrome/118.0.0.0 Safari/537.36" etag="ReW0HeOPcXAIEWbOzYxk" version="22.0.8" type="device">
  <diagram name="PÃ¡gina-1" id="Fv006TZ1s8BF7KD13A_R">
    <mxGraphModel dx="1050" dy="587" grid="1" gridSize="10" guides="1" tooltips="1" connect="1" arrows="1" fold="1" page="1" pageScale="1" pageWidth="827" pageHeight="1169" math="0" shadow="0">
      <root>
        <mxCell id="0" />
        <mxCell id="1" parent="0" />
        <mxCell id="m7J6-NmBQES64uSzAYcl-6" value="&amp;lt;&amp;lt;Container(C4)&amp;gt;&amp;gt;&lt;br style=&quot;border-color: var(--border-color);&quot;&gt;&lt;font style=&quot;font-size: 14px;&quot;&gt;Sistema&lt;/font&gt;" style="shape=umlLifeline;perimeter=lifelinePerimeter;whiteSpace=wrap;html=1;container=1;dropTarget=0;collapsible=0;recursiveResize=0;outlineConnect=0;portConstraint=eastwest;newEdgeStyle={&quot;curved&quot;:0,&quot;rounded&quot;:0};size=50;" parent="1" vertex="1">
          <mxGeometry x="345" y="30" width="100" height="390" as="geometry" />
        </mxCell>
        <mxCell id="Au7UaYFqiPmSZ-RLRXvx-11" value="&amp;lt;&amp;lt;Container(C4)&amp;gt;&amp;gt;&lt;br style=&quot;border-color: var(--border-color);&quot;&gt;Sistema" style="shape=umlLifeline;perimeter=lifelinePerimeter;whiteSpace=wrap;html=1;container=1;dropTarget=0;collapsible=0;recursiveResize=0;outlineConnect=0;portConstraint=eastwest;newEdgeStyle={&quot;curved&quot;:0,&quot;rounded&quot;:0};size=60;" parent="1" vertex="1">
          <mxGeometry x="342.5" y="420" width="105" height="50" as="geometry" />
        </mxCell>
        <mxCell id="9pujxQvsNoWamvmqbeBY-1" value="Actor" style="shape=umlActor;verticalLabelPosition=bottom;verticalAlign=top;html=1;outlineConnect=0;" parent="1" vertex="1">
          <mxGeometry x="87" y="30" width="50" height="100" as="geometry" />
        </mxCell>
        <mxCell id="9pujxQvsNoWamvmqbeBY-3" value="" style="line;strokeWidth=1;dashed=1;labelPosition=center;verticalLabelPosition=bottom;align=left;verticalAlign=top;spacingLeft=20;spacingTop=15;html=1;whiteSpace=wrap;rotation=-90;" parent="1" vertex="1">
          <mxGeometry x="-16.75" y="278.75" width="257.5" height="10" as="geometry" />
        </mxCell>
        <mxCell id="9pujxQvsNoWamvmqbeBY-4" value="Actor" style="shape=umlActor;verticalLabelPosition=bottom;verticalAlign=top;html=1;outlineConnect=0;textOpacity=0;" parent="1" vertex="1">
          <mxGeometry x="87" y="420" width="50" height="100" as="geometry" />
        </mxCell>
        <mxCell id="Au7UaYFqiPmSZ-RLRXvx-14" value="&lt;font style=&quot;font-size: 15px;&quot;&gt;alt&lt;/font&gt;" style="shape=umlFrame;whiteSpace=wrap;html=1;pointerEvents=0;recursiveResize=0;container=1;collapsible=0;width=70;align=center;height=20;" parent="1" vertex="1">
          <mxGeometry x="80" y="240" width="340" height="136" as="geometry" />
        </mxCell>
        <mxCell id="Au7UaYFqiPmSZ-RLRXvx-10" value="" style="html=1;verticalAlign=bottom;labelBackgroundColor=none;endArrow=block;endFill=1;dashed=1;rounded=0;" parent="Au7UaYFqiPmSZ-RLRXvx-14" source="m7J6-NmBQES64uSzAYcl-2" edge="1">
          <mxGeometry width="160" relative="1" as="geometry">
            <mxPoint x="308" y="106" as="sourcePoint" />
            <mxPoint x="32.5" y="106" as="targetPoint" />
          </mxGeometry>
        </mxCell>
        <mxCell id="Au7UaYFqiPmSZ-RLRXvx-13" value="&lt;div&gt;400 Bad Request&lt;/div&gt;&lt;div&gt;&lt;br&gt;&lt;/div&gt;" style="text;html=1;align=center;verticalAlign=middle;resizable=0;points=[];autosize=1;strokeColor=none;fillColor=none;" parent="Au7UaYFqiPmSZ-RLRXvx-14" vertex="1">
          <mxGeometry x="124.5" y="81" width="120" height="40" as="geometry" />
        </mxCell>
        <mxCell id="Au7UaYFqiPmSZ-RLRXvx-12" value="201&amp;nbsp;Created" style="text;html=1;align=center;verticalAlign=middle;resizable=0;points=[];autosize=1;strokeColor=none;fillColor=none;" parent="Au7UaYFqiPmSZ-RLRXvx-14" vertex="1">
          <mxGeometry x="140" y="21" width="90" height="30" as="geometry" />
        </mxCell>
        <mxCell id="Au7UaYFqiPmSZ-RLRXvx-7" value="" style="html=1;verticalAlign=bottom;labelBackgroundColor=none;endArrow=block;endFill=1;dashed=1;rounded=0;" parent="Au7UaYFqiPmSZ-RLRXvx-14" source="m7J6-NmBQES64uSzAYcl-2" edge="1">
          <mxGeometry width="160" relative="1" as="geometry">
            <mxPoint x="310" y="45.579999999999984" as="sourcePoint" />
            <mxPoint x="32" y="46" as="targetPoint" />
          </mxGeometry>
        </mxCell>
        <mxCell id="9pujxQvsNoWamvmqbeBY-8" value="" style="line;strokeWidth=1;dashed=1;labelPosition=center;verticalLabelPosition=bottom;align=left;verticalAlign=top;spacingLeft=20;spacingTop=15;html=1;whiteSpace=wrap;rotation=-180;" parent="Au7UaYFqiPmSZ-RLRXvx-14" vertex="1">
          <mxGeometry y="71" width="337.5" height="10" as="geometry" />
        </mxCell>
        <mxCell id="9pujxQvsNoWamvmqbeBY-7" value="Pedido POST para criar Sala num Edificio" style="html=1;verticalAlign=bottom;endArrow=block;curved=0;rounded=0;" parent="1" target="m7J6-NmBQES64uSzAYcl-2" edge="1">
          <mxGeometry x="-0.0072" width="80" relative="1" as="geometry">
            <mxPoint x="112" y="200" as="sourcePoint" />
            <mxPoint x="192" y="200" as="targetPoint" />
            <mxPoint as="offset" />
          </mxGeometry>
        </mxCell>
        <mxCell id="m7J6-NmBQES64uSzAYcl-2" value="" style="html=1;points=[[0,0,0,0,5],[0,1,0,0,-5],[1,0,0,0,5],[1,1,0,0,-5]];perimeter=orthogonalPerimeter;outlineConnect=0;targetShapes=umlLifeline;portConstraint=eastwest;newEdgeStyle={&quot;curved&quot;:0,&quot;rounded&quot;:0};" parent="1" vertex="1">
          <mxGeometry x="390" y="150" width="10" height="240" as="geometry" />
        </mxCell>
      </root>
    </mxGraphModel>
  </diagram>
</mxfile>
